<?xml version="1.0" encoding="UTF-8" standalone="no"?>
<!-- Created with Inkscape (http://www.inkscape.org/) -->

<svg
   xmlns:dc="http://purl.org/dc/elements/1.1/"
   xmlns:cc="http://creativecommons.org/ns#"
   xmlns:rdf="http://www.w3.org/1999/02/22-rdf-syntax-ns#"
   xmlns:svg="http://www.w3.org/2000/svg"
   xmlns="http://www.w3.org/2000/svg"
   xmlns:sodipodi="http://sodipodi.sourceforge.net/DTD/sodipodi-0.dtd"
   xmlns:inkscape="http://www.inkscape.org/namespaces/inkscape"
   width="255"
   height="255"
   viewBox="0 0 67.468749 67.468752"
   version="1.1"
   id="svg8"
   inkscape:version="0.92.2 2405546, 2018-03-11"
   sodipodi:docname="dickbutt.svg">
  <defs
     id="defs2" />
  <sodipodi:namedview
     id="base"
     pagecolor="#ffffff"
     bordercolor="#666666"
     borderopacity="1.0"
     inkscape:pageopacity="0.0"
     inkscape:pageshadow="2"
     inkscape:zoom="3.2976562"
     inkscape:cx="174.16341"
     inkscape:cy="87.705209"
     inkscape:document-units="mm"
     inkscape:current-layer="layer1"
     showgrid="false"
     units="px"
     inkscape:window-width="2558"
     inkscape:window-height="1361"
     inkscape:window-x="0"
     inkscape:window-y="25"
     inkscape:window-maximized="1" />
  <metadata
     id="metadata5">
    <rdf:RDF>
      <cc:Work
         rdf:about="">
        <dc:format>image/svg+xml</dc:format>
        <dc:type
           rdf:resource="http://purl.org/dc/dcmitype/StillImage" />
        <dc:title></dc:title>
      </cc:Work>
    </rdf:RDF>
  </metadata>
  <g
     inkscape:label="Ebene 1"
     inkscape:groupmode="layer"
     id="layer1"
     transform="translate(0,-229.53123)">
    <path
       style="fill:none;stroke:#000000;stroke-width:0.26458332px;stroke-linecap:butt;stroke-linejoin:miter;stroke-opacity:1"
       d="m 36.750122,267.22901 1.86428,-2.06712 3.34785,-0.65658 2.727947,0.32093 4.091921,1.44421 1.845376,2.88842 0.08024,4.09192 -4.332623,4.73379 -2.487245,1.04304 -4.255709,1.38077 -1.360654,7.84611 -4.172157,-1.68491 -1.705953,-3.25271 3.15016,1.16663 0.240702,-4.89425 -6.258231,1.28374 -3.851221,-1.36398 -3.129116,8.50478 -1.92561,1.28374 -4.974493,-5.37566 1.845377,-0.2407 3.690752,1.92561 2.086078,-6.33847 -4.814025,-2.08608 -5.054727,-7.22103 -2.246545,-6.65941 -0.481402,-8.98618 0.320935,-1.28374 16.367686,-0.7221 -16.688621,0.7221 1.043039,-4.65355 -0.882572,-2.24655 1.524442,-1.60467 2.487246,-0.64187 2.326779,0.80233 0.983835,1.69782 -2.337714,2.55982 -4.18225,-0.24595 4.18225,0.24595 0.872476,1.92036 2.613885,-0.54258 -0.420752,-1.19932"
       id="path1206"
       inkscape:connector-curvature="0" />
    <path
       style="fill:none;stroke:#000000;stroke-width:0.26458332px;stroke-linecap:butt;stroke-linejoin:miter;stroke-opacity:1"
       d="m 23.459795,248.44261 0.770798,1.46016 h 2.968647 l 2.366897,-1.76515 0.200586,-2.04596 -1.043041,-1.28374 -2.287303,-1.00112 -1.924968,1.00112 -1.765143,1.68491 -0.200584,1.20351"
       id="path1208"
       inkscape:connector-curvature="0" />
    <path
       style="fill:none;stroke:#000000;stroke-width:0.26458332px;stroke-linecap:butt;stroke-linejoin:miter;stroke-opacity:1"
       d="m 14.040906,243.3236 3.450052,-3.93145 3.610519,-1.84538 3.369817,-0.44129 4.252388,0.68199 2.607599,2.28666 1.40409,3.28959 0.04012,6.45881 0.200583,8.02338 0.481404,3.73087 1.130678,4.13927"
       id="path1210"
       inkscape:connector-curvature="0" />
    <path
       style="fill:none;stroke:#000000;stroke-width:0.26458332px;stroke-linecap:butt;stroke-linejoin:miter;stroke-opacity:1"
       d="m 26.008979,258.13291 1.110029,10.34397 -1.92561,2.52736 -0.320935,1.16339 0.962805,0.48141 h 1.243624 l 0.39814,-1.84512 1.133726,1.07641 0.714677,-1.67842 3.088999,1.24362 -1.203504,-1.88549 -2.286662,-1.28374 -0.04012,-9.66817"
       id="path1212"
       inkscape:connector-curvature="0" />
    <path
       style="fill:none;stroke:#000000;stroke-width:0.26458332px;stroke-linecap:butt;stroke-linejoin:miter;stroke-opacity:1"
       d="m 34.66098,263.0611 4.051805,-2.20643 4.573323,0.48141 0.641871,1.08315 -0.52152,1.92561 3.369818,-6.73963 1.845376,-4.57333 1.043038,-0.64187 1.404091,-0.0401 1.444209,0.9628 1.083154,1.72503 -0.481401,3.24946 -1.163389,3.28959 -2.005846,2.16631 2.888417,-0.40117 2.668468,1.3648 -0.943443,1.36315 -1.604674,0.56163 -1.083157,-0.4814 3.891338,1.28374 v 2.56748 l -1.089895,1.04593 -2.823089,0.0622 -1.743495,-3.39478 -2.928533,-2.24654 -3.530285,-0.72211"
       id="path1214"
       inkscape:connector-curvature="0" />
  </g>
</svg>
